<svg xmlns="http://www.w3.org/2000/svg" width="28" height="20" viewBox="0 0 28 20">
  <metadata><?xpacket begin="﻿" id="W5M0MpCehiHzreSzNTczkc9d"?>
<x:xmpmeta xmlns:x="adobe:ns:meta/" x:xmptk="Adobe XMP Core 5.6-c138 79.159824, 2016/09/14-01:09:01        ">
   <rdf:RDF xmlns:rdf="http://www.w3.org/1999/02/22-rdf-syntax-ns#">
      <rdf:Description rdf:about=""/>
   </rdf:RDF>
</x:xmpmeta>
                                                                                                    
                                                                                                    
                                                                                                    
                                                                                                    
                                                                                                    
                                                                                                    
                                                                                                    
                                                                                                    
                                                                                                    
                                                                                                    
                                                                                                    
                                                                                                    
                                                                                                    
                                                                                                    
                                                                                                    
                                                                                                    
                                                                                                    
                                                                                                    
                                                                                                    
                                                                                                    
                           
<?xpacket end="w"?></metadata>
<defs>
    <style>
      .cls-1 {
        fill: #fff;
        fill-rule: evenodd;
      }
    </style>
  </defs>
  <path class="cls-1" d="M2929.95,5199l-2.18.71h0v4.44h0Zm-2.44.95-1.51.57h0l1.51,3.88h0v-4.45Zm13.61,5.81-2.08,3.84h0l4.33,2.1h0Zm11.74,0.46,1.14-6.23h0l-2.51,2.49h0Zm0.87-6.48-2.17.73h0l-0.34,1.76h0Zm-1.38,9.25,0.51-2.77h0l-2.01-.39h0Zm0.24-3.02-1.37-3.74h0l-0.64,3.35h0Zm-0.5,3.02-1.51-3.16h0l-0.78,4.12h0Zm-7.26,6.17,1.25,3.24h0l2.34-3.52h0Zm1.51,3.24,3.21-1.08h0l-0.87-2.44h0Zm3.47-1.08,0.9-.29h0l-1.77-2.15h0Zm-5.91-4.88,0.93,2.47h0l3.59-.27h0Zm5.63-2.25-5.37,2.25h0l4.52,2.2h0Zm1.44,6.59,1.38-7.55h0l-3.14,5.41h0Zm1.12-7.55-2.29.96h0l-0.86,4.45h0Zm-10.45-2.73,2.26,5.94h0l2.38-3.69h0Zm-1.09-2.69,0.83,2.19h0l3.33-1.37h0Zm1.09,2.44,4.64,2.25h0l-1.31-3.62h0Zm-1.09-2.69,4.16,0.82h0l-1.81-4.97h0Zm-0.27,0,2.36-4.15h0l-3.48,1.16h0Zm-1.5,6.04,2.07-3.84h0l-1.96-.97h0Zm2.34-3.84-0.84-2.2h0l-1.12,1.23h0Zm-1.1-2.2-1.13-2.99h0v4.22h0Zm-1.51,6.79,0.12-4.82h0l-2.56,3.63h0Zm-8.23,1.04,2.85,7.36h0l2.67-4.68h0Zm3.12,7.61,2.67-.9h0v-3.79h0Zm2.41-9.84-5.53,1.98h0l5.52,2.68h0Zm2.7,1.43-2.44-1.18h0v4.66h0Zm-8.56-11.09-2.18,5.15h0l5.12,2.48h0Zm-2.18,5.4,2.24,5.74h0l2.88-3.26h0Zm2.51,5.99,5.53-1.98h0l-2.66-1.29h0Z" transform="translate(-2926 -5199)"/>
</svg>
